<svg width="104" height="104" viewBox="0 0 104 104" fill="none" xmlns="http://www.w3.org/2000/svg">
<circle cx="52" cy="52" r="52" fill="#CFD8F4"/>
<path fill-rule="evenodd" clip-rule="evenodd" d="M33 22H71L71.5 32L77.2049 38.0052C79.3188 38.1118 81 39.8596 81 42V50C81 52.2091 79.2091 54 77 54V81H27V54H26C23.7909 54 22 52.2091 22 50V42C22 39.7909 23.7909 38 26 38H27H27.6L33 32V22Z" fill="white"/>
<rect x="23" y="42" width="58" height="12" fill="#CFD8F4"/>
<rect x="56" y="62" width="12" height="20" fill="#CFD8F4"/>
<rect x="36" y="63" width="12" height="9" fill="#CFD8F4"/>
<rect x="33" y="23" width="38" height="10" fill="#CFD8F4"/>
<path fill-rule="evenodd" clip-rule="evenodd" d="M83.9978 41.7033V41.8536C84.0007 41.9102 84.0007 41.9669 83.9978 42.0235V42.0758V49.1076C83.995 50.8421 83.386 52.5211 82.2761 53.8541C81.1663 55.1871 79.6254 56.0903 77.9201 56.4073V78.6921C77.9201 79.8724 77.4512 81.0044 76.6166 81.839C75.782 82.6736 74.65 83.1425 73.4697 83.1425H30.5339C29.3536 83.1425 28.2216 82.6736 27.387 81.839C26.5524 81.0044 26.0835 79.8724 26.0835 78.6921V56.4073C24.3782 56.0903 22.8373 55.1871 21.7274 53.8541C20.6176 52.5211 20.0086 50.8421 20.0058 49.1076V42.0758V42.0235C20.0026 41.9647 20.0026 41.9058 20.0058 41.8471C20.0058 41.8294 20.0043 41.8125 20.0028 41.7958C20 41.7631 19.9972 41.7314 20.0058 41.6967C20.0136 41.6655 20.0237 41.6343 20.0334 41.6045C20.04 41.5844 20.0463 41.5649 20.0516 41.5464C20.0646 41.5007 20.0842 41.4484 20.1038 41.4027C20.1234 41.3569 20.1496 41.3112 20.1757 41.2654C20.1851 41.2491 20.1986 41.2328 20.2121 41.2164C20.2364 41.187 20.2607 41.1576 20.2607 41.1282L20.3587 41.0106L20.4763 40.8864L20.509 40.8472L30.7561 31.8614V24.9734C30.7578 23.9201 31.177 22.9105 31.9218 22.1657C32.6665 21.4209 33.6762 21.0017 34.7295 21H69.248C70.3013 21.0017 71.3109 21.4209 72.0557 22.1657C72.8004 22.9105 73.2196 23.9201 73.2213 24.9734V31.8875L83.4946 40.8472L83.5272 40.8864L83.6449 41.0106L83.7429 41.1282C83.7756 41.1739 83.8017 41.2197 83.8279 41.2654C83.8334 41.2752 83.839 41.2846 83.8445 41.2939C83.8648 41.3285 83.8843 41.3615 83.8997 41.4027C83.9067 41.4211 83.9095 41.4396 83.9123 41.4578C83.9175 41.4911 83.9224 41.5234 83.952 41.553C83.9978 41.5987 83.9978 41.651 83.9978 41.7033ZM34.2323 24.4762C34.1003 24.6082 34.0254 24.7867 34.0237 24.9734L34.0106 30.9922H69.9538V24.9734C69.9521 24.7867 69.8772 24.6082 69.7452 24.4762C69.6132 24.3442 69.4347 24.2693 69.248 24.2676H34.7295C34.5428 24.2693 34.3643 24.3442 34.2323 24.4762ZM70.9733 34.2598H32.978L25.9266 40.442H78.0247L70.9733 34.2598ZM68.5749 49.1076V43.7096H59.674V49.1076C59.6758 50.2111 60.1149 51.269 60.8952 52.0493C61.6755 52.8296 62.7334 53.2687 63.8369 53.2705H64.3924C64.9405 53.2722 65.4835 53.1658 65.9905 52.9575C66.4974 52.7491 66.9583 52.4429 67.3467 52.0562C67.7352 51.6696 68.0436 51.2101 68.2544 50.7042C68.4651 50.1982 68.574 49.6557 68.5749 49.1076ZM56.4195 49.1076V43.7096H47.5318V49.1076C47.5335 50.2111 47.9726 51.269 48.753 52.0493C49.5333 52.8296 50.5911 53.2687 51.6946 53.2705H52.2567C53.3602 53.2687 54.418 52.8296 55.1984 52.0493C55.9787 51.269 56.4178 50.2111 56.4195 49.1076ZM44.2642 49.1076V43.7096H35.396V49.1076C35.3978 50.2111 35.8369 51.269 36.6172 52.0493C37.3975 52.8296 38.4554 53.2687 39.5589 53.2705H40.1013C41.2049 53.2687 42.2627 52.8296 43.043 52.0493C43.8233 51.269 44.2625 50.2111 44.2642 49.1076ZM24.4423 52.0493C25.2226 52.8296 26.2804 53.2687 27.384 53.2705H27.946C29.0495 53.2687 30.1074 52.8296 30.8877 52.0493C31.668 51.269 32.1071 50.2111 32.1089 49.1076V43.7096H23.2211V49.1076C23.2228 50.2111 23.662 51.269 24.4423 52.0493ZM57.805 79.8684H66.0719V64.3606H57.805V79.8684ZM74.3061 79.5285C74.5279 79.3067 74.6525 79.0058 74.6525 78.6921L74.6329 56.4073C72.8797 56.0807 71.3024 55.1343 70.189 53.741C69.495 54.6127 68.6134 55.3168 67.6099 55.801C66.6064 56.2852 65.5066 56.5371 64.3924 56.538H63.863C62.7488 56.5371 61.6491 56.2852 60.6455 55.801C59.642 55.3168 58.7605 54.6127 58.0664 53.741C57.3723 54.6127 56.4908 55.3168 55.4872 55.801C54.4837 56.2852 53.384 56.5371 52.2697 56.538H51.7077C50.5935 56.5371 49.4937 56.2852 48.4902 55.801C47.4867 55.3168 46.6051 54.6127 45.9111 53.741C45.217 54.6127 44.3354 55.3168 43.3319 55.801C42.3284 56.2852 41.2286 56.5371 40.1144 56.538H39.5589C38.4414 56.5401 37.3378 56.2896 36.3306 55.8052C35.3235 55.3209 34.4388 54.6153 33.7426 53.741C32.6293 55.1343 31.052 56.0807 29.2988 56.4073V78.6856C29.2988 78.9993 29.4234 79.3001 29.6452 79.522C29.867 79.7438 30.1679 79.8684 30.4816 79.8684H54.5374V62.7268C54.5374 62.2935 54.7096 61.8779 55.0159 61.5715C55.3223 61.2651 55.7379 61.093 56.1712 61.093H67.7057C68.139 61.093 68.5546 61.2651 68.861 61.5715C69.1674 61.8779 69.3395 62.2935 69.3395 62.7268V79.875H73.4697C73.7834 79.875 74.0843 79.7503 74.3061 79.5285ZM79.509 52.0493C80.2893 51.269 80.7285 50.2111 80.7302 49.1076V43.7096H71.849V49.1076C71.8507 50.2111 72.2898 51.269 73.0702 52.0493C73.8505 52.8296 74.9083 53.2687 76.0118 53.2705H76.5673C77.6709 53.2687 78.7287 52.8296 79.509 52.0493ZM36.2456 61.093H47.7801C48.2134 61.093 48.629 61.2651 48.9354 61.5715C49.2418 61.8779 49.4139 62.2934 49.4139 62.7267V72.5686C49.4139 73.0019 49.2418 73.4175 48.9354 73.7239C48.629 74.0303 48.2134 74.2024 47.7801 74.2024H36.2456C35.8123 74.2024 35.3967 74.0303 35.0904 73.7239C34.784 73.4175 34.6118 73.0019 34.6118 72.5686V62.7267C34.6118 62.2934 34.784 61.8779 35.0904 61.5715C35.3967 61.2651 35.8123 61.093 36.2456 61.093ZM37.8794 70.9283H46.1463V64.3605H37.8794V70.9283Z" fill="#1F69C1"/>
</svg>
