<svg width="104" height="104" viewBox="0 0 104 104" fill="none" xmlns="http://www.w3.org/2000/svg">
<circle cx="52" cy="52" r="52" fill="#DEF0D2"/>
<circle cx="52" cy="52" r="32" fill="white"/>
<mask id="mask0" mask-type="alpha" maskUnits="userSpaceOnUse" x="22" y="22" width="60" height="60">
<circle cx="52" cy="52" r="30" fill="white"/>
</mask>
<g mask="url(#mask0)">
<circle cx="52" cy="75" r="23" fill="#A4C929"/>
</g>
<circle cx="52" cy="42" r="10" fill="#A4C929"/>
<path d="M75.498 73.648C80.756 67.942 84 60.352 84 52C84 34.356 69.644 20 52 20C34.356 20 20 34.356 20 52C20 60.342 23.234 67.924 28.482 73.626C28.57 73.756 28.678 73.864 28.796 73.97C34.632 80.132 42.864 84 52 84C61.102 84 69.31 80.16 75.142 74.038C75.278 73.92 75.398 73.796 75.498 73.648ZM52 24C67.44 24 80 36.56 80 52C80 57.926 78.136 63.42 74.982 67.95C72.782 60.482 67.086 54.654 59.834 52.164C62.954 49.786 64.982 46.044 64.982 41.828C64.982 34.66 59.15 28.828 51.982 28.828C44.814 28.828 38.982 34.66 38.982 41.828C38.982 46.05 41.014 49.796 44.142 52.174C36.914 54.668 31.218 60.484 29.002 67.93C25.856 63.402 24 57.916 24 52C24 36.56 36.56 24 52 24ZM51.982 50.828C47.02 50.828 42.982 46.79 42.982 41.828C42.982 36.866 47.018 32.828 51.982 32.828C56.944 32.828 60.982 36.866 60.982 41.828C60.982 46.79 56.946 50.828 51.982 50.828ZM32.242 71.818C33.71 62.094 42.026 54.852 51.996 54.836C61.98 54.836 70.294 62.088 71.73 71.844C66.664 76.88 59.69 80 52 80C44.296 80 37.31 76.87 32.242 71.818Z" fill="#02793E"/>
</svg>
